<svg width="24" height="24" viewBox="0 0 24 24" fill="none" xmlns="http://www.w3.org/2000/svg">
<path d="M12 14V17M7.2 10.4V8.8C7.2 6.14903 9.34903 4 12 4C14.651 4 16.8 6.14903 16.8 8.8V10.4M4 15.2C4 12.9373 4 11.8059 4.70294 11.103C5.40589 10.4 6.53726 10.4 8.8 10.4H15.2C17.4627 10.4 18.5941 10.4 19.297 11.103C20 11.8059 20 12.9373 20 15.2C20 17.4627 20 18.5941 19.297 19.297C18.5941 20 17.4627 20 15.2 20H8.8C6.53726 20 5.40589 20 4.70294 19.297C4 18.5941 4 17.4627 4 15.2Z" stroke="#6F748C" stroke-width="1.25" stroke-linecap="round"/>
</svg>
