<svg width="20" height="20" viewBox="0 0 20 20" fill="none" xmlns="http://www.w3.org/2000/svg">
<path d="M3.00061 2.99997L17.0006 17M5.64801 5.64737C4.6724 6.15181 3.89455 6.9694 3.4393 7.96891C2.98405 8.96843 2.8778 10.0919 3.1376 11.159C3.3974 12.2262 4.00819 13.1751 4.87194 13.8535C5.73568 14.5319 6.8023 14.9004 7.90061 14.9H13.8506C14.1606 14.9002 14.4689 14.8547 14.7655 14.7649M16.673 13.15C16.9113 12.6697 17.0231 12.1365 16.9977 11.6009C16.9723 11.0654 16.8107 10.5451 16.528 10.0895C16.2454 9.63389 15.8512 9.25795 15.3826 8.99728C14.9141 8.73662 14.3868 8.59987 13.8506 8.59997H12.5976C12.3298 7.70346 11.8113 6.90222 11.1031 6.29077C10.3949 5.67931 9.52659 5.28313 8.60061 5.14897" stroke="#6F748C" stroke-linecap="round" stroke-linejoin="round"/>
</svg>
