<svg width="20" height="20" viewBox="0 0 20 20" fill="none" xmlns="http://www.w3.org/2000/svg">
<path d="M6.85004 14.9001C7.30856 16.1235 8.54576 17.0001 10 17.0001C11.4543 17.0001 12.6915 16.1235 13.15 14.9001M14.7243 8.3967V7.90348C14.7243 5.19536 12.6091 3 9.99995 3C7.39074 3 5.27556 5.19536 5.27556 7.90348V8.3967C5.27556 8.98864 5.10676 9.56726 4.79041 10.0598L4.0152 11.2667C3.30713 12.369 3.84769 13.8674 5.0792 14.216C8.30087 15.128 11.6991 15.128 14.9207 14.216C16.1523 13.8674 16.6928 12.369 15.9847 11.2667L15.2095 10.0598C14.8932 9.56726 14.7243 8.98864 14.7243 8.3967Z" stroke="#21232A" stroke-linecap="round"/>
</svg>
