<svg width="20" height="20" viewBox="0 0 20 20" fill="none" xmlns="http://www.w3.org/2000/svg">
<path d="M3.044 10.2437C2.98566 10.0866 2.98566 9.91372 3.044 9.75656C3.61216 8.37893 4.57658 7.20102 5.81499 6.37216C7.05341 5.54331 8.51005 5.10083 10.0002 5.10083C11.4904 5.10083 12.9471 5.54331 14.1855 6.37216C15.4239 7.20102 16.3883 8.37893 16.9565 9.75656C17.0148 9.91372 17.0148 10.0866 16.9565 10.2437C16.3883 11.6214 15.4239 12.7993 14.1855 13.6281C12.9471 14.457 11.4904 14.8995 10.0002 14.8995C8.51005 14.8995 7.05341 14.457 5.81499 13.6281C4.57658 12.7993 3.61216 11.6214 3.044 10.2437Z" stroke="#21232A" stroke-linecap="round" stroke-linejoin="round"/>
<path d="M10.0002 12.1C11.16 12.1 12.1001 11.1599 12.1001 10.0002C12.1001 8.84041 11.16 7.90026 10.0002 7.90026C8.8405 7.90026 7.90035 8.84041 7.90035 10.0002C7.90035 11.1599 8.8405 12.1 10.0002 12.1Z" stroke="#21232A" stroke-linecap="round" stroke-linejoin="round"/>
</svg>
