<svg width="20" height="20" viewBox="0 0 20 20" fill="none" xmlns="http://www.w3.org/2000/svg">
<path d="M10 4C12.8284 4 14.2424 4.00026 15.1211 4.87891C15.9998 5.75761 16 7.17156 16 10C16 12.8284 15.9998 14.2424 15.1211 15.1211C14.2425 15.9998 12.8284 16 10 16C7.17156 16 5.75761 15.9998 4.87891 15.1211C4.00026 14.2425 4 12.8284 4 10C4 7.17153 4.00026 5.75761 4.87891 4.87891C5.75761 4.00026 7.17153 4 10 4Z" fill="#B5BBD3"/>
<path d="M10 6.75C11.1046 6.75 12 7.64543 12 8.75V9.25C12.5523 9.25 13 9.69772 13 10.25V12.25C13 12.8023 12.5523 13.25 12 13.25H8C7.44772 13.25 7 12.8023 7 12.25V10.25C7 9.69772 7.44772 9.25 8 9.25V8.75C8 7.64543 8.89543 6.75 10 6.75ZM10 7.75C9.44772 7.75 9 8.19772 9 8.75V9.25H11V8.75C11 8.19772 10.5523 7.75 10 7.75Z" fill="white"/>
</svg>
